<svg width="106" height="106" viewBox="0 0 106 106" fill="none" xmlns="http://www.w3.org/2000/svg">
<path d="M53 0C23.744 0 0 23.744 0 53C0 82.256 23.744 106 53 106C82.256 106 106 82.256 106 53C106 23.744 82.256 0 53 0ZM47.7 95.029C26.765 92.432 10.6 74.624 10.6 53C10.6 49.714 11.024 46.587 11.713 43.513L37.1 68.9V74.2C37.1 80.03 41.87 84.8 47.7 84.8V95.029ZM84.27 81.567C82.892 77.274 78.97 74.2 74.2 74.2H68.9V58.3C68.9 55.385 66.515 53 63.6 53H31.8V42.4H42.4C45.315 42.4 47.7 40.015 47.7 37.1V26.5H58.3C64.13 26.5 68.9 21.73 68.9 15.9V13.727C84.429 20.034 95.4 35.245 95.4 53C95.4 64.024 91.16 74.041 84.27 81.567Z" fill="#E2E2E2"/>
</svg>
